<?xml version="1.0" encoding="utf-8"?>
<!-- Generator: Adobe Illustrator 22.1.0, SVG Export Plug-In . SVG Version: 6.00 Build 0)  -->
<svg version="1.1" id="Layer_1" xmlns="http://www.w3.org/2000/svg" xmlns:xlink="http://www.w3.org/1999/xlink" x="0px" y="0px"
	 viewBox="0 0 551 98.6" style="enable-background:new 0 0 551 98.6;" xml:space="preserve">
<style type="text/css">
	.st0{fill:#557EBF;}
	.st1{fill:#787878;}
	.st2{fill:#565656;}
	.st3{opacity:0.7;fill:#565656;enable-background:new    ;}
</style>
<g id="logo_2_">
	<g>
		<path class="st0" d="M32.5,50.6L60.4,2.1c1.1-2,3.7-2.7,5.7-1.5c0.6,0.4,1.1,0.9,1.5,1.5l7.9,13.4c0.8,1.3,0.8,2.9,0,4.2
			L55.3,54.8c-0.7,1.3-2.1,2.1-3.6,2.1l-15.6-0.1c-2.3,0-4.1-1.9-4.1-4.2C32,51.9,32.2,51.2,32.5,50.6z"/>
		<path class="st1" d="M75.6,43.8l28,48.5c1.1,2,0.5,4.5-1.5,5.7c-0.6,0.4-1.3,0.6-2,0.6l-15.5,0.1c-1.5,0-2.9-0.8-3.6-2.1
			L60.6,61.4c-0.8-1.3-0.8-2.9,0-4.2l7.8-13.4c1.1-2,3.7-2.7,5.7-1.5C74.7,42.6,75.3,43.2,75.6,43.8z"/>
		<path class="st2" d="M60,84L4.2,84C1.9,84,0,82.2,0,79.8c0-0.7,0.2-1.5,0.6-2.1l7.6-13.4c0.7-1.3,2.2-2.2,3.7-2.2l40.5,0
			c1.5,0,2.9,0.8,3.7,2.2l7.6,13.3c1.2,2,0.5,4.6-1.5,5.8C61.5,83.8,60.7,84,60,84z"/>
	</g>
	<g>
		<path class="st0" d="M158.7,11.8L152,23.9l-12.1,0l0,34.4l-10.4,0l0-34.4l-15.9,0l6.8-12.1L158.7,11.8z"/>
		<path class="st0" d="M189.3,49.7l-4.9,8.6l-23.4,0l0-33.6l28.1,0l-4.9,8.7l-15.8,0v4l19.3,0l-4.3,7.6l-14.9,0v4.5L189.3,49.7z"/>
		<path class="st0" d="M222.7,49.7l-4.8,8.6l-12.2,0c-2,0-4-0.4-5.8-1.3c-1.8-0.8-3.4-2.1-4.6-3.6c-1.3-1.6-2.4-3.4-3-5.4
			c-0.8-2.2-1.1-4.5-1.1-6.8c0-2.3,0.3-4.6,1.1-6.7c0.7-1.9,1.7-3.7,3-5.2c1.3-1.4,2.9-2.6,4.6-3.4c1.8-0.8,3.8-1.2,5.8-1.2l17,0
			l-4.8,8.7l-12.2,0c-1.9,0-3.8,0.8-5.1,2.3c-0.7,0.8-1.2,1.6-1.5,2.6c-0.7,2.1-0.7,4.5,0,6.6c0.3,0.9,0.8,1.8,1.5,2.5
			c0.6,0.7,1.4,1.3,2.3,1.7c0.9,0.4,1.9,0.6,2.8,0.6L222.7,49.7z"/>
		<path class="st0" d="M254.8,58.4h-7.5v-13l-14.5,0v12.9l-7.5,0V24.8l7.5,0l0,11.9l14.5,0l0-11.9l7.5,0L254.8,58.4z"/>
		<path class="st2" d="M291.4,58.4l6.3-12l11.6,0c0.9,0,1.9,0.1,2.8,0.2c-0.5-0.8-1-1.9-1.7-3.2l-1.8-3.6l-6-12.4l-15.9,30.9
			l-12.3,0l21.6-42.1c0.7-1.3,1.6-2.6,2.7-3.6c2.3-2.1,5.7-2.1,8.1-0.1c1.1,1.1,2,2.3,2.7,3.7l21.1,42.1L291.4,58.4z"/>
		<path class="st2" d="M364.5,49.7l-4.9,8.6l-12.2,0c-2,0-4-0.4-5.8-1.3c-1.8-0.8-3.4-2.1-4.6-3.6c-1.3-1.6-2.4-3.4-3-5.4
			c-0.7-2.2-1.1-4.5-1.1-6.8c0-2.3,0.3-4.6,1.1-6.7c0.7-1.9,1.7-3.7,3-5.2c1.3-1.4,2.9-2.6,4.6-3.4c1.8-0.8,3.8-1.2,5.8-1.2l17,0
			l-4.9,8.7l-12.2,0c-1.9,0-3.8,0.8-5.1,2.3c-0.7,0.8-1.2,1.6-1.5,2.6c-0.7,2.1-0.7,4.5,0,6.6c0.3,0.9,0.8,1.8,1.5,2.5
			c0.6,0.7,1.4,1.3,2.3,1.7c0.9,0.4,1.9,0.6,2.8,0.6L364.5,49.7z"/>
		<path class="st2" d="M396.6,58.4l-7.4,0v-13l-14.5,0v12.9l-7.6,0V24.8l7.5,0v11.9l14.5,0V24.8l7.5,0L396.6,58.4z"/>
		<path class="st2" d="M408.9,58.4l-7.5,0V24.8l7.5,0L408.9,58.4z"/>
		<path class="st2" d="M441.8,49.7l-4.9,8.6l-23.4,0V24.8l28.1,0l-4.9,8.7l-15.7,0l0,4l19.3,0l-4.3,7.6l-14.9,0v4.5L441.8,49.7z"/>
		<path class="st2" d="M451.7,24.8l10.9,22.3L474,24.8l8.8,0l-15.5,30.3c-0.5,1-1.2,1.8-2,2.6c-1.6,1.5-4.1,1.5-5.8,0.1
			c-0.8-0.8-1.5-1.7-2-2.7l-15.2-30.3L451.7,24.8z"/>
		<path class="st2" d="M513.8,49.7l-4.9,8.6l-23.4,0V24.8l28.1,0l-4.9,8.7l-15.8,0v4l19.3,0l-4.3,7.6l-14.9,0v4.5L513.8,49.7z"/>
		<path class="st2" d="M550.9,58.4l-10.1,0l-5.4-8.9l-11.6,0v8.9h-7.5V41.2l21.1,0c1.1,0,2.1-0.3,2.9-1c0.8-0.7,1.2-1.7,1.2-2.7
			c0.1-1.1-0.3-2.2-1.1-2.9c-0.9-0.7-1.9-1-3-1l-21.1,0l4.9-8.7l15.6,0c1.4,0,2.9,0.2,4.3,0.5c1.5,0.3,2.8,1,4,1.9
			c1.3,1,2.3,2.2,3,3.7c0.9,1.9,1.3,3.9,1.2,5.9c0,1.3-0.1,2.5-0.4,3.7c-0.3,1.1-0.7,2.2-1.2,3.2c-0.5,0.9-1.2,1.7-2,2.4
			c-0.8,0.7-1.7,1.1-2.7,1.4c0.5,0.5,1,1.1,1.4,1.7l2,2.7L550.9,58.4z"/>
	</g>
	<path class="st3" d="M114.3,65.9l436.2,0c0.3,0,0.5,0.2,0.5,0.5v0.1c0,0.3-0.2,0.5-0.5,0.5l-436.2,0c-0.3,0-0.5-0.2-0.5-0.5v-0.1
		C113.8,66.1,114,65.9,114.3,65.9z"/>
	<g>
		<path class="st2" d="M379.6,91.5V71.9h2.5v8.6h11.6v-8.6h2.5v19.6h-2.5v-8.9h-11.6l0,8.9H379.6z"/>
		<path class="st2" d="M399.9,87.2c0-2.9,1.9-4.4,5.8-4.4c1.3,0,2.5,0.1,3.8,0.2v-1.3c0-1.7-1.3-2.5-3.9-2.5c-1.5,0-3.1,0.3-4.6,0.7
			v-2c1.5-0.5,3-0.7,4.6-0.7c4.3,0,6.4,1.5,6.4,4.5v9.9h-1.4l-0.9-1.4c-1.4,0.9-3,1.4-4.7,1.4C401.6,91.5,399.9,90,399.9,87.2z
			 M405.7,84.8c-2.2,0-3.3,0.8-3.3,2.4s0.9,2.4,2.6,2.4c1.6,0.1,3.2-0.4,4.5-1.4V85C408.2,84.9,407,84.8,405.7,84.8L405.7,84.8z"/>
		<path class="st2" d="M179.2,91.5V77.1h1.7l0.5,1.8c1.4-1.2,3.1-1.8,4.9-1.8c3.6,0,5.4,1.8,5.4,5.3v9H189v-9c0-2.1-1.1-3.2-3.2-3.2
			c-1.6,0-3.1,0.7-4.2,1.8v10.5L179.2,91.5z"/>
		<path class="st2" d="M207.8,91.5c0,3.5-2.2,5.2-6.6,5.2c-1.6,0-3.2-0.2-4.7-0.7v-2c1.5,0.5,3.1,0.7,4.7,0.7c2.7,0,4.1-1,4.1-3.1
			v-0.7c-1.1,0.5-2.3,0.7-3.5,0.7c-4.6,0-6.8-2.4-6.8-7.3c0-4.9,2.4-7.2,7.2-7.1c1.9,0,3.8,0.2,5.7,0.6L207.8,91.5z M205.3,79.5
			c-1.1-0.2-2.1-0.3-3.2-0.3c-3,0-4.6,1.7-4.6,5c0,3.3,1.4,5,4.3,5.1c1.2,0,2.4-0.2,3.5-0.7V79.5z"/>
		<path class="st2" d="M219,91.5l0-19.6h7.9c4,0,6,1.8,6,5.3c0,3.5-2.7,5.8-8.2,7l-0.6-2.1c4-0.6,6.1-2.1,6.1-4.7
			c0-2.6-1.2-3.6-3.5-3.2l-5.2,0v17.5L219,91.5z"/>
		<path class="st2" d="M235.4,84.3c0-4.8,2.3-7.2,6.8-7.2c4.6,0,6.8,2.4,6.8,7.2c0,4.8-2.3,7.2-6.8,7.2
			C237.7,91.5,235.4,89.1,235.4,84.3z M242.2,89.4c2.9,0,4.3-1.7,4.3-5.2c0-3.5-1.4-5.2-4.3-5.1c-2.9,0-4.3,1.7-4.3,5.1
			C237.9,87.7,239.3,89.4,242.2,89.4z"/>
		<path class="st2" d="M252.4,90.8v-2.2c1.7,0.5,3.4,0.8,5.1,0.8c2.3,0,3.5-0.7,3.5-2c0-1.4-0.8-2-2.4-1.9h-2
			c-3.1,0-4.6-1.4-4.6-4.2c0-2.8,2-4.2,6-4.1c1.7,0,3.4,0.2,5.1,0.7V80c-1.7-0.5-3.4-0.8-5.1-0.8c-2.4,0-3.6,0.7-3.6,2
			c0,1.4,0.8,2,2.3,1.9h2c3.3,0,5,1.4,5,4.2c0,2.8-2,4.2-6,4.1C255.7,91.5,254,91.2,252.4,90.8z"/>
		<path class="st2" d="M266.7,90.8v-2.2c1.7,0.5,3.4,0.8,5.1,0.8c2.3,0,3.5-0.7,3.5-2c0-1.4-0.8-2-2.4-1.9h-2
			c-3.1,0-4.6-1.4-4.6-4.2c0-2.8,2-4.2,6-4.1c1.7,0,3.4,0.2,5.1,0.7V80c-1.7-0.5-3.4-0.8-5.1-0.8c-2.4,0-3.6,0.7-3.6,2
			s0.8,2,2.3,1.9h2c3.3,0,5,1.4,5,4.2s-2,4.2-6,4.1C270.1,91.5,268.4,91.2,266.7,90.8z"/>
		<path class="st2" d="M284.1,71.9v2.4h-2.5v-2.4H284.1z M284.1,77.1v14.4h-2.5V77.1L284.1,77.1z"/>
		<path class="st2" d="M288.5,71.9h2.5v5.9c1.1-0.5,2.3-0.7,3.5-0.7c4.6,0,6.8,2.3,6.8,6.9c0,4.6-2.4,7.1-7.2,7.5
			c-1.9,0-3.8-0.2-5.7-0.6V71.9z M291,89c1,0.3,2,0.4,3.1,0.4c3.2,0,4.8-1.8,4.8-5.5s-1.4-5.2-4.3-4.6c-1.2,0-2.4,0.2-3.5,0.7
			L291,89z"/>
		<path class="st2" d="M307.6,71.9v2.4H305v-2.4H307.6z M307.6,77.1v14.4H305l0-14.4L307.6,77.1z"/>
		<path class="st2" d="M314.6,71.9l0,19.6h-2.5l0-19.6H314.6z"/>
		<path class="st2" d="M321.7,71.9l0,2.4h-2.5v-2.4H321.7z M321.7,77.1v14.4h-2.5V77.1L321.7,77.1z"/>
		<path class="st2" d="M326.1,74.7h1.6l0.6,2.4l3.9,0v2h-3.5v8.3c0,1.4,0.6,2,1.7,2h1.7v2h-2.4c-2.4,0-3.6-1.3-3.6-3.9V74.7z"/>
		<path class="st2" d="M338.1,71.9v2.4h-2.5v-2.4H338.1z M338.1,77.1v14.4h-2.5V77.1L338.1,77.1z"/>
		<path class="st2" d="M348.4,77.1c4.1,0,6.1,2,6.1,6.1c0,0.6-0.1,1.3-0.2,1.9h-10.1c0,2.9,1.7,4.4,5.2,4.4c1.5,0,2.9-0.2,4.3-0.6v2
			c-1.5,0.4-3.1,0.6-4.6,0.6c-4.9,0-7.4-2.5-7.4-7.4C341.8,79.2,344,76.8,348.4,77.1z M344.3,82.9h7.8c-0.1-2.5-1.3-3.8-3.7-3.8
			C346,79.1,344.7,80.4,344.3,82.9L344.3,82.9z"/>
		<path class="st2" d="M357.9,90.8v-2.2c1.7,0.5,3.4,0.8,5.1,0.8c2.3,0,3.5-0.7,3.5-2c0-1.4-0.8-2-2.4-1.9l-2,0
			c-3.1,0-4.6-1.4-4.6-4.2c0-2.8,2-4.2,6-4.1c1.7,0,3.4,0.2,5.1,0.7l0,2.2c-1.7-0.5-3.4-0.8-5.1-0.8c-2.4,0-3.6,0.7-3.6,2
			s0.8,2,2.3,1.9h2c3.3,0,5,1.4,5,4.2s-2,4.2-6,4.1C361.3,91.5,359.5,91.2,357.9,90.8z"/>
		<path class="st2" d="M115.2,91.5V71.9h3.2l7.2,16.4l7.1-16.4h3.1l0,19.6h-2.3v-16l-7,16h-2l-7.1-16l0,16H115.2z"/>
		<path class="st2" d="M139.5,87.2c0-2.9,1.9-4.4,5.8-4.4c1.3,0,2.5,0.1,3.8,0.2v-1.3c0-1.7-1.3-2.5-3.9-2.5c-1.5,0-3.1,0.3-4.6,0.7
			v-2c1.5-0.5,3-0.7,4.6-0.7c4.3,0,6.4,1.5,6.4,4.5v9.9h-1.4l-0.9-1.4c-1.4,0.9-3,1.4-4.7,1.4C141.3,91.5,139.5,90,139.5,87.2z
			 M145.4,84.8c-2.2,0-3.3,0.8-3.3,2.4s0.9,2.4,2.6,2.4c1.6,0.1,3.2-0.4,4.5-1.4V85C147.9,84.9,146.6,84.8,145.4,84.8z"/>
		<path class="st2" d="M155.7,91.5l0-19.6h2.5v6.4c1.5-0.8,3.2-1.1,4.9-1.1c3.6,0,5.3,1.4,5.3,4.2s-1.4,4.2-4.1,4.2l4.6,6.1h-3.2
			l-4.6-6.1v-1.2c3.1-0.3,4.7-1.3,4.7-3c0-1.7-1-2.4-3-2c-1.6,0-3.2,0.4-4.6,1.3v11L155.7,91.5z"/>
		<path class="st2" d="M174.8,71.9v2.4h-2.5v-2.4H174.8z M174.8,77.1v14.4h-2.5l0-14.4L174.8,77.1z"/>
		<path class="st2" d="M464.2,91.5V77.1h1.7l0.5,1.8c1.4-1.2,3.1-1.8,4.9-1.8c3.6,0,5.4,1.8,5.4,5.3v9h-2.5l0-9
			c0-2.1-1.1-3.2-3.2-3.2c-1.6,0-3.1,0.7-4.2,1.8v10.5H464.2z"/>
		<path class="st2" d="M454.6,77.1c4.1,0,6.1,2,6.1,6.1c0,0.6-0.1,1.3-0.2,1.9l-10.1,0c0,2.9,1.7,4.4,5.2,4.4c1.5,0,2.9-0.2,4.3-0.6
			v2c-1.5,0.4-3.1,0.6-4.6,0.6c-4.9,0-7.4-2.5-7.4-7.4C448,79.2,450.2,76.8,454.6,77.1z M450.5,82.9h7.8c-0.1-2.5-1.3-3.8-3.7-3.8
			C452.2,79.1,450.8,80.4,450.5,82.9L450.5,82.9z"/>
		<path class="st2" d="M416.1,77.7c1.9-0.4,3.9-0.6,5.9-0.6c4.6,0,6.9,2.3,6.9,6.8c0,4.6-2.3,7.1-7,7.5c-1.2,0-2.3-0.2-3.4-0.7v5.9
			H416L416.1,77.7z M418.6,88.6c1,0.5,2.2,0.7,3.3,0.7c3,0,4.5-1.8,4.5-5.4c0-3.6-1.5-5.2-4.5-4.7c-1.1,0-2.3,0.1-3.4,0.3
			L418.6,88.6z"/>
		<path class="st2" d="M432.4,77.7c1.9-0.4,3.9-0.6,5.9-0.6c4.6,0,6.9,2.3,6.9,6.8s-2.3,7.1-7,7.5c-1.2,0-2.3-0.2-3.4-0.7v5.9h-2.5
			L432.4,77.7z M434.9,88.6c1,0.5,2.2,0.7,3.3,0.7c3,0,4.5-1.8,4.5-5.4s-1.5-5.2-4.5-4.7c-1.1,0-2.3,0.1-3.4,0.3L434.9,88.6z"/>
	</g>
</g>
</svg>
